<mxfile host="Electron" agent="Mozilla/5.0 (X11; Linux x86_64) AppleWebKit/537.36 (KHTML, like Gecko) draw.io/26.2.2 Chrome/134.0.6998.178 Electron/35.1.2 Safari/537.36" version="26.2.2">
  <diagram name="페이지-1" id="p568x0F5C-pffo1-Ry7s">
    <mxGraphModel dx="1362" dy="843" grid="1" gridSize="10" guides="1" tooltips="1" connect="1" arrows="1" fold="1" page="1" pageScale="1" pageWidth="4681" pageHeight="3300" math="0" shadow="0">
      <root>
        <mxCell id="0" />
        <mxCell id="1" parent="0" />
        <mxCell id="d4MO3R_pMteDhGbNmbMq-5" value="" style="edgeStyle=orthogonalEdgeStyle;rounded=0;orthogonalLoop=1;jettySize=auto;html=1;fontSize=21;" edge="1" parent="1" source="d4MO3R_pMteDhGbNmbMq-2" target="d4MO3R_pMteDhGbNmbMq-4">
          <mxGeometry relative="1" as="geometry" />
        </mxCell>
        <mxCell id="d4MO3R_pMteDhGbNmbMq-2" value="" style="strokeWidth=2;html=1;shape=mxgraph.flowchart.start_2;whiteSpace=wrap;fontSize=21;" vertex="1" parent="1">
          <mxGeometry x="745" y="80" width="40" height="40" as="geometry" />
        </mxCell>
        <mxCell id="d4MO3R_pMteDhGbNmbMq-8" value="" style="edgeStyle=orthogonalEdgeStyle;rounded=0;orthogonalLoop=1;jettySize=auto;html=1;" edge="1" parent="1" source="d4MO3R_pMteDhGbNmbMq-4" target="d4MO3R_pMteDhGbNmbMq-7">
          <mxGeometry relative="1" as="geometry">
            <Array as="points">
              <mxPoint x="625" y="190" />
            </Array>
          </mxGeometry>
        </mxCell>
        <mxCell id="d4MO3R_pMteDhGbNmbMq-4" value="READY" style="whiteSpace=wrap;html=1;strokeWidth=2;fontSize=21;" vertex="1" parent="1">
          <mxGeometry x="705" y="160" width="120" height="60" as="geometry" />
        </mxCell>
        <mxCell id="d4MO3R_pMteDhGbNmbMq-10" value="" style="edgeStyle=orthogonalEdgeStyle;rounded=0;orthogonalLoop=1;jettySize=auto;html=1;" edge="1" parent="1" source="d4MO3R_pMteDhGbNmbMq-7" target="d4MO3R_pMteDhGbNmbMq-9">
          <mxGeometry relative="1" as="geometry">
            <Array as="points">
              <mxPoint x="625" y="510" />
            </Array>
          </mxGeometry>
        </mxCell>
        <mxCell id="d4MO3R_pMteDhGbNmbMq-13" value="" style="edgeStyle=orthogonalEdgeStyle;rounded=0;orthogonalLoop=1;jettySize=auto;html=1;strokeWidth=5;" edge="1" parent="1" source="d4MO3R_pMteDhGbNmbMq-7" target="d4MO3R_pMteDhGbNmbMq-12">
          <mxGeometry relative="1" as="geometry" />
        </mxCell>
        <mxCell id="d4MO3R_pMteDhGbNmbMq-16" style="edgeStyle=orthogonalEdgeStyle;rounded=0;orthogonalLoop=1;jettySize=auto;html=1;entryX=0;entryY=0.5;entryDx=0;entryDy=0;strokeWidth=5;" edge="1" parent="1" source="d4MO3R_pMteDhGbNmbMq-7" target="d4MO3R_pMteDhGbNmbMq-4">
          <mxGeometry relative="1" as="geometry">
            <Array as="points">
              <mxPoint x="625" y="190" />
            </Array>
          </mxGeometry>
        </mxCell>
        <mxCell id="d4MO3R_pMteDhGbNmbMq-7" value="INPUTTING" style="whiteSpace=wrap;html=1;fontSize=21;strokeWidth=2;" vertex="1" parent="1">
          <mxGeometry x="540" y="310" width="170" height="60" as="geometry" />
        </mxCell>
        <mxCell id="d4MO3R_pMteDhGbNmbMq-15" style="edgeStyle=orthogonalEdgeStyle;rounded=0;orthogonalLoop=1;jettySize=auto;html=1;entryX=0.5;entryY=1;entryDx=0;entryDy=0;strokeWidth=5;" edge="1" parent="1" source="d4MO3R_pMteDhGbNmbMq-9" target="d4MO3R_pMteDhGbNmbMq-4">
          <mxGeometry relative="1" as="geometry" />
        </mxCell>
        <mxCell id="d4MO3R_pMteDhGbNmbMq-17" style="edgeStyle=orthogonalEdgeStyle;rounded=0;orthogonalLoop=1;jettySize=auto;html=1;entryX=0.5;entryY=1;entryDx=0;entryDy=0;strokeWidth=5;" edge="1" parent="1" source="d4MO3R_pMteDhGbNmbMq-9" target="d4MO3R_pMteDhGbNmbMq-7">
          <mxGeometry relative="1" as="geometry">
            <Array as="points">
              <mxPoint x="625" y="510" />
            </Array>
          </mxGeometry>
        </mxCell>
        <mxCell id="d4MO3R_pMteDhGbNmbMq-9" value="CALCULATED" style="whiteSpace=wrap;html=1;fontSize=21;strokeWidth=2;" vertex="1" parent="1">
          <mxGeometry x="670" y="480" width="190" height="60" as="geometry" />
        </mxCell>
        <mxCell id="d4MO3R_pMteDhGbNmbMq-14" style="edgeStyle=orthogonalEdgeStyle;rounded=0;orthogonalLoop=1;jettySize=auto;html=1;entryX=1;entryY=0.5;entryDx=0;entryDy=0;strokeWidth=5;" edge="1" parent="1" source="d4MO3R_pMteDhGbNmbMq-12" target="d4MO3R_pMteDhGbNmbMq-4">
          <mxGeometry relative="1" as="geometry">
            <Array as="points">
              <mxPoint x="920" y="190" />
            </Array>
          </mxGeometry>
        </mxCell>
        <mxCell id="d4MO3R_pMteDhGbNmbMq-12" value="ERROR" style="whiteSpace=wrap;html=1;fontSize=21;strokeWidth=2;" vertex="1" parent="1">
          <mxGeometry x="860" y="310" width="120" height="60" as="geometry" />
        </mxCell>
      </root>
    </mxGraphModel>
  </diagram>
</mxfile>
